{"title":"Tomorrowland.2015.BRRip.AC3.XviD.VAiN","uid":12483202,"size":1614973969,"categoryP":"video","categoryS":"movies","magnet":"?xt=urn:btih:4cb097584f204c5bb89ef9274de92c17498a0137&amp;dn=Tomorrowland.2015.BRRip.AC3.XviD.VAiN&amp;tr=udp%3A%2F%2Ftracker.leechers-paradise.org%3A6969&amp;tr=udp%3A%2F%2Fzer0day.ch%3A1337&amp;tr=udp%3A%2F%2Fopen.demonii.com%3A1337&amp;tr=udp%3A%2F%2Ftracker.coppersurfer.tk%3A6969&amp;tr=udp%3A%2F%2Fexodus.desync.com%3A6969","seeders":0,"leechers":1,"uploader":".BONE.","files":3,"time":1443082110,"description":"Tomorrowland.2015.BRRip.AC3.XviD.VAIN\r\n \nhttp://www.imdb.com/title/tt1964418/\r\nPLOT........ :Bound by a shared destiny, a teen bursting with scientific curiosity and a former boy-genius inventor embark on a mission to unearth the secrets of a place somewhere in time and space that exists in their collective memory\r\n\r\nT E C H N i C A L . i N F O\r\n\r\nGeneral\r\nComplete name: Tomorrowland.2015.BRRip.AC3.XviD.VAiN.avi\r\nFormat: AVI\r\nFormat/Info: Audio Video Interleave\r\nFormat profile: OpenDML\r\nFormat settings: rec\r\nFile size: 1.50 GiB\r\nDuration: 2h 10mn\r\nOverall bit rate: 1 656 Kbps\r\nWriting application: AVI-Mux GUI 1.17.8.3, Feb 16 201019:42:50\r\n\r\nVideo\r\nID: 0\r\nFormat: MPEG-4 Visual\r\nFormat profile: Advanced   \r\nFormat settings, BVOP: 1\r\nFormat settings, QPel: No\r\nFormat settings, GMC: No warppoints\r\nFormat settings, Matrix: Default (MPEG)\r\nCodec ID: XVID\r\nCodec ID/Hint: XviD\r\nDuration: 2h 10mn\r\nBit rate: 1 202 Kbps\r\nWidth: 720 pixels\r\nHeight: 320 pixels\r\nDisplay aspect ratio: 2.25:1\r\nFrame rate: 23.976 fps\r\nColor space: YUV\r\nChroma subsampling: 4:2:0\r\nBit depth: 8 bits\r\nScan type: Progressive\r\nCompression mode: Lossy\r\nBits/(Pixel*Frame): 0.218\r\nStream size: 1.09 GiB (73%)\r\nWriting library: XviD 1.2.1 (UTC 2008-12-04)\r\n\r\nAudio\r\nID: 1\r\nFormat: AC-3\r\nFormat/Info: Audio Coding 3\r\nMode extension: CM (complete main)\r\nFormat settings, Endianness: Big\r\nCodec ID: 2000\r\nDuration: 2h 10mn\r\nBit rate mode: Constant\r\nBit rate: 448 Kbps\r\nChannel(s): 6 channels\r\nChannel positions: Front: L C R, Side: L R, LFE\r\nSampling rate: 44.1 KHz\r\nBit depth: 16 bits\r\nCompression mode: Lossy\r\nStream size: 417 MiB (27%)\r\nAlignment: Aligned on interleaves\r\nInterleave, duration: 70 ms (1.67 video frames)\r\nInterleave, preload duration: 417 ms\r\n\r\nE N C O D E R S . N O T E S\r\n\r\n***DISCLAiMER*** as you can see there were no special friend that passed us some special vobs. what you see here is work put into a source. sum may like others may just hate...VAiN stands behind it's QUALiTY and don't claim to be professional HDTSCAMBDBRiPDVDRiPSCRHQ ENCODERS. just a cpl of fella's nipping at ya mums knickers\r\n \nhttp://i.imgur.com/MuXaTgo.png \nhttp://i.imgur.com/BNJ5FdV.png \nhttp://i.imgur.com/0Z3nnmQ.png \nhttp://i.imgur.com/pS0Dk02.png \nhttp://i.imgur.com/ZCCIDeR.png\r\n\r\n\r\ngot any funny stories, jokes, nakid pix of ya sisters/gf's or just want to reach out to us giz us some treats send to...    :wink:\r\n\r\nGREETZ:\r\n\r\nHive-CM8 | Rx | REFiLL | JEDI | DREAMER n' LADY | 26k |Unevano | EsX | TOFFEE\r\nGH0ST | ViSiON | Sugarb | MenaceIISociety | STARLETS | GUSH | A.C.A.B. | jamie111 | TED |\r\n\r\nAnd all the release grps that don't hide behind new names, or live in the past n glory of old has been that neva were release grps","torrent":{"xt":"urn:btih:4cb097584f204c5bb89ef9274de92c17498a0137","amp;dn":"Tomorrowland.2015.BRRip.AC3.XviD.VAiN","amp;tr":["udp%3A%2F%2Ftracker.leechers-paradise.org%3A6969","udp%3A%2F%2Fzer0day.ch%3A1337","udp%3A%2F%2Fopen.demonii.com%3A1337","udp%3A%2F%2Ftracker.coppersurfer.tk%3A6969","udp%3A%2F%2Fexodus.desync.com%3A6969"],"infoHash":"4cb097584f204c5bb89ef9274de92c17498a0137","infoHashBuffer":{"type":"Buffer","data":[76,176,151,88,79,32,76,91,184,158,249,39,77,233,44,23,73,138,1,55]},"announce":[],"urlList":[]}}